<?xml version="1.0" encoding="utf-8"?>
<!-- Generator: Adobe Illustrator 26.0.0, SVG Export Plug-In . SVG Version: 6.00 Build 0)  -->
<svg version="1.1" id="Layer_1" xmlns="http://www.w3.org/2000/svg" xmlns:xlink="http://www.w3.org/1999/xlink" x="0px" y="0px"
	 viewBox="0 0 360 261" style="enable-background:new 0 0 360 261;" xml:space="preserve">
<style type="text/css">
	.st0{fill:#D9D9D9;filter:url(#Adobe_OpacityMaskFilter);}
	.st1{mask:url(#mask0_0_1_00000168097027560204824300000009945380023166990771_);}
	.st2{fill:#1C1B1F;}
	.st3{fill:#D9D9D9;filter:url(#Adobe_OpacityMaskFilter_00000066516407171500159970000017901735192127857582_);}
	.st4{mask:url(#mask1_0_1_00000086693124615587114290000006576779065995096229_);}
	.st5{fill:#D9D9D9;filter:url(#Adobe_OpacityMaskFilter_00000169521251226538275600000003136908584623380621_);}
	.st6{mask:url(#mask2_0_1_00000108289429476949944720000009778254166104155804_);}
	.st7{fill:#D9D9D9;filter:url(#Adobe_OpacityMaskFilter_00000003106570778727317030000002218873804523567782_);}
	.st8{mask:url(#mask3_0_1_00000070080551991681675750000002475598058123482290_);}
</style>
<defs>
	<filter id="Adobe_OpacityMaskFilter" filterUnits="userSpaceOnUse" x="26.85" y="25.5" width="17.3" height="18">
		<feColorMatrix  type="matrix" values="1 0 0 0 0  0 1 0 0 0  0 0 1 0 0  0 0 0 1 0"/>
	</filter>
</defs>
<mask maskUnits="userSpaceOnUse" x="26.85" y="25.5" width="17.3" height="18" id="mask0_0_1_00000168097027560204824300000009945380023166990771_">
	<rect x="23.5" y="22.5" class="st0" width="24" height="24"/>
</mask>
<g class="st1">
	<path class="st2" d="M33.75,43.5v-5.95l-5.15,2.98l-1.75-3.03l5.15-3l-5.15-2.98l1.75-3.02l5.15,2.98V25.5h3.5v5.98l5.15-2.98
		l1.75,3.02L39,34.5l5.15,3l-1.75,3.03l-5.15-2.98v5.95H33.75z"/>
</g>
<path class="st2" d="M104.75,31.5v-5.95l-5.15,2.98l-1.75-3.02l5.15-3l-5.15-2.98l1.75-3.02l5.15,2.98V13.5h3.5v5.98l5.15-2.98
	l1.75,3.02L110,22.5l5.15,3l-1.75,3.02l-5.15-2.98v5.95H104.75z"/>
<defs>
	
		<filter id="Adobe_OpacityMaskFilter_00000075130986288664825060000000754102643749313708_" filterUnits="userSpaceOnUse" x="50.85" y="72.5" width="17.3" height="18">
		<feColorMatrix  type="matrix" values="1 0 0 0 0  0 1 0 0 0  0 0 1 0 0  0 0 0 1 0"/>
	</filter>
</defs>
<mask maskUnits="userSpaceOnUse" x="50.85" y="72.5" width="17.3" height="18" id="mask1_0_1_00000086693124615587114290000006576779065995096229_">
	
		<rect x="47.5" y="69.5" style="fill:#D9D9D9;filter:url(#Adobe_OpacityMaskFilter_00000075130986288664825060000000754102643749313708_);" width="24" height="24"/>
</mask>
<g class="st4">
	<path class="st2" d="M57.75,90.5v-5.95l-5.15,2.97l-1.75-3.03l5.15-3l-5.15-2.97l1.75-3.03l5.15,2.97V72.5h3.5v5.97l5.15-2.97
		l1.75,3.03L63,81.5l5.15,3l-1.75,3.03l-5.15-2.97v5.95H57.75z"/>
</g>
<defs>
	
		<filter id="Adobe_OpacityMaskFilter_00000093857307188640525780000010005390353121068453_" filterUnits="userSpaceOnUse" x="38.85" y="138.5" width="17.3" height="18">
		<feColorMatrix  type="matrix" values="1 0 0 0 0  0 1 0 0 0  0 0 1 0 0  0 0 0 1 0"/>
	</filter>
</defs>
<mask maskUnits="userSpaceOnUse" x="38.85" y="138.5" width="17.3" height="18" id="mask2_0_1_00000108289429476949944720000009778254166104155804_">
	
		<rect x="35.5" y="135.5" style="fill:#D9D9D9;filter:url(#Adobe_OpacityMaskFilter_00000093857307188640525780000010005390353121068453_);" width="24" height="24"/>
</mask>
<g class="st6">
	<path class="st2" d="M45.75,156.5v-5.95l-5.15,2.97l-1.75-3.02l5.15-3l-5.15-2.98l1.75-3.02l5.15,2.98v-5.98h3.5v5.98l5.15-2.98
		l1.75,3.02L51,147.5l5.15,3l-1.75,3.02l-5.15-2.97v5.95H45.75z"/>
</g>
<defs>
	
		<filter id="Adobe_OpacityMaskFilter_00000124146648895629978960000017702113871023547037_" filterUnits="userSpaceOnUse" x="14.85" y="216.5" width="17.3" height="18">
		<feColorMatrix  type="matrix" values="1 0 0 0 0  0 1 0 0 0  0 0 1 0 0  0 0 0 1 0"/>
	</filter>
</defs>
<mask maskUnits="userSpaceOnUse" x="14.85" y="216.5" width="17.3" height="18" id="mask3_0_1_00000070080551991681675750000002475598058123482290_">
	
		<rect x="11.5" y="213.5" style="fill:#D9D9D9;filter:url(#Adobe_OpacityMaskFilter_00000124146648895629978960000017702113871023547037_);" width="24" height="24"/>
</mask>
<g class="st8">
	<path class="st2" d="M21.75,234.5v-5.95l-5.15,2.97l-1.75-3.02l5.15-3l-5.15-2.98l1.75-3.02l5.15,2.98v-5.98h3.5v5.98l5.15-2.98
		l1.75,3.02L27,225.5l5.15,3l-1.75,3.02l-5.15-2.97v5.95H21.75z"/>
</g>
<path class="st2" d="M69.75,203.5v-5.95l-5.15,2.97l-1.75-3.02l5.15-3l-5.15-2.98l1.75-3.02l5.15,2.98v-5.98h3.5v5.98l5.15-2.98
	l1.75,3.02L75,194.5l5.15,3l-1.75,3.02l-5.15-2.97v5.95H69.75z"/>
<path class="st2" d="M313.25,43.5v-5.95l5.15,2.98l1.75-3.03l-5.15-3l5.15-2.98l-1.75-3.02l-5.15,2.98V25.5h-3.5v5.98l-5.15-2.98
	l-1.75,3.02L308,34.5l-5.15,3l1.75,3.03l5.15-2.98v5.95H313.25z"/>
<path class="st2" d="M242.25,31.5v-5.95l5.15,2.98l1.75-3.02l-5.15-3l5.15-2.98l-1.75-3.02l-5.15,2.98V13.5h-3.5v5.98l-5.15-2.98
	l-1.75,3.02L237,22.5l-5.15,3l1.75,3.02l5.15-2.98v5.95H242.25z"/>
<path class="st2" d="M337.25,121.5v-5.95l5.15,2.97l1.75-3.03l-5.15-3l5.15-2.97l-1.75-3.03l-5.15,2.97v-5.97h-3.5v5.97l-5.15-2.97
	l-1.75,3.03l5.15,2.97l-5.15,3l1.75,3.03l5.15-2.97v5.95H337.25z"/>
<path class="st2" d="M289.25,90.5v-5.95l5.15,2.97l1.75-3.03l-5.15-3l5.15-2.97l-1.75-3.03l-5.15,2.97V72.5h-3.5v5.97l-5.15-2.97
	l-1.75,3.03L284,81.5l-5.15,3l1.75,3.03l5.15-2.97v5.95H289.25z"/>
<path class="st2" d="M301.25,156.5v-5.95l5.15,2.97l1.75-3.02l-5.15-3l5.15-2.98l-1.75-3.02l-5.15,2.98v-5.98h-3.5v5.98l-5.15-2.98
	l-1.75,3.02l5.15,2.98l-5.15,3l1.75,3.02l5.15-2.97v5.95H301.25z"/>
<path class="st2" d="M325.25,234.5v-5.95l5.15,2.97l1.75-3.02l-5.15-3l5.15-2.98l-1.75-3.02l-5.15,2.98v-5.98h-3.5v5.98l-5.15-2.98
	l-1.75,3.02l5.15,2.98l-5.15,3l1.75,3.02l5.15-2.97v5.95H325.25z"/>
<path class="st2" d="M277.25,203.5v-5.95l5.15,2.97l1.75-3.02l-5.15-3l5.15-2.98l-1.75-3.02l-5.15,2.98v-5.98h-3.5v5.98l-5.15-2.98
	l-1.75,3.02l5.15,2.98l-5.15,3l1.75,3.02l5.15-2.97v5.95H277.25z"/>
</svg>
